HIERARCHY
ROOT Hips
{
	OFFSET 0.000000 100.481300 0.000000
	CHANNELS 6 Xposition Yposition Zposition Xrotation Yrotation Zrotation
	JOINT Spine
	{
		OFFSET -0.279200 12.230698 -2.892100
		CHANNELS 3 Xrotation Yrotation Zrotation
		JOINT Spine1
		{
			OFFSET -0.325700 14.269203 -3.374200
			CHANNELS 3 Xrotation Yrotation Zrotation
			JOINT Spine2
			{
				OFFSET -0.372300 16.307602 -0.352600
				CHANNELS 3 Xrotation Yrotation Zrotation
				JOINT Neck
				{
					OFFSET -0.418800 17.814194 8.416900
					CHANNELS 3 Xrotation Yrotation Zrotation
					JOINT Head
					{
						OFFSET 0.000000 7.031097 3.806800
						CHANNELS 3 Xrotation Yrotation Zrotation
						JOINT HeadTop_End
						{
							OFFSET 0.000000 24.646606 12.978600
							CHANNELS 3 Xrotation Yrotation Zrotation
							End Site
							{
								OFFSET 0.000000 27.854965 0.000000
							}
						}
					}
				}
				JOINT LeftShoulder
				{
					OFFSET 16.952999 14.495407 -7.737500
					CHANNELS 3 Xrotation Yrotation Zrotation
					JOINT LeftArm
					{
						OFFSET 9.308998 -2.777710 0.208600
						CHANNELS 3 Xrotation Yrotation Zrotation
						JOINT LeftForeArm
						{
							OFFSET 29.972298 0.000000 0.000000
							CHANNELS 3 Xrotation Yrotation Zrotation
							JOINT LeftHand
							{
								OFFSET 26.026505 0.000000 0.000000
								CHANNELS 3 Xrotation Yrotation Zrotation
								JOINT LeftHandThumb1
								{
									OFFSET 12.240501 -7.147949 9.207150
									CHANNELS 3 Xrotation Yrotation Zrotation
									JOINT LeftHandThumb2
									{
										OFFSET 4.138618 -2.389435 2.389433
										CHANNELS 3 Xrotation Yrotation Zrotation
										JOINT LeftHandThumb3
										{
											OFFSET 2.726913 -1.574387 1.574386
											CHANNELS 3 Xrotation Yrotation Zrotation
											JOINT LeftHandThumb4
											{
												OFFSET 3.941010 -2.275345 2.275342
												CHANNELS 3 Xrotation Yrotation Zrotation
												End Site
												{
													OFFSET -0.005798 5.087799 0.009903
												}
											}
										}
									}
								}
								JOINT LeftHandIndex1
								{
									OFFSET 24.424698 -1.985611 5.953459
									CHANNELS 3 Xrotation Yrotation Zrotation
									JOINT LeftHandIndex2
									{
										OFFSET 6.426697 0.000000 0.000000
										CHANNELS 3 Xrotation Yrotation Zrotation
										JOINT LeftHandIndex3
										{
											OFFSET 5.337898 0.000000 0.000000
											CHANNELS 3 Xrotation Yrotation Zrotation
											JOINT LeftHandIndex4
											{
												OFFSET 4.409401 0.000000 0.000000
												CHANNELS 3 Xrotation Yrotation Zrotation
												End Site
												{
													OFFSET 0.000000 4.409363 0.014373
												}
											}
										}
									}
								}
								JOINT LeftHandMiddle1
								{
									OFFSET 23.810104 0.000000 0.000000
									CHANNELS 3 Xrotation Yrotation Zrotation
									JOINT LeftHandMiddle2
									{
										OFFSET 7.176498 0.000000 0.000000
										CHANNELS 3 Xrotation Yrotation Zrotation
										JOINT LeftHandMiddle3
										{
											OFFSET 6.774902 0.000000 0.000000
											CHANNELS 3 Xrotation Yrotation Zrotation
											JOINT LeftHandMiddle4
											{
												OFFSET 5.403328 0.000000 0.000000
												CHANNELS 3 Xrotation Yrotation Zrotation
												End Site
												{
													OFFSET -0.027702 5.403244 0.017414
												}
											}
										}
									}
								}
								JOINT LeftHandRing1
								{
									OFFSET 22.908401 -0.839279 -6.020567
									CHANNELS 3 Xrotation Yrotation Zrotation
									JOINT LeftHandRing2
									{
										OFFSET 6.337502 0.000000 0.000000
										CHANNELS 3 Xrotation Yrotation Zrotation
										JOINT LeftHandRing3
										{
											OFFSET 5.779297 0.000000 0.000000
											CHANNELS 3 Xrotation Yrotation Zrotation
											JOINT LeftHandRing4
											{
												OFFSET 4.965698 0.000000 0.000000
												CHANNELS 3 Xrotation Yrotation Zrotation
												End Site
												{
													OFFSET 0.000000 4.965668 0.016186
												}
											}
										}
									}
								}
								JOINT LeftHandPinky1
								{
									OFFSET 20.037003 -1.530319 -10.950146
									CHANNELS 3 Xrotation Yrotation Zrotation
									JOINT LeftHandPinky2
									{
										OFFSET 5.254700 0.000000 0.000000
										CHANNELS 3 Xrotation Yrotation Zrotation
										JOINT LeftHandPinky3
										{
											OFFSET 4.810204 0.000000 0.000000
											CHANNELS 3 Xrotation Yrotation Zrotation
											JOINT LeftHandPinky4
											{
												OFFSET 3.647202 0.000000 0.000000
												CHANNELS 3 Xrotation Yrotation Zrotation
												End Site
												{
													OFFSET 0.000000 3.647186 0.011889
												}
											}
										}
									}
								}
							}
						}
					}
				}
				JOINT RightShoulder
				{
					OFFSET -15.141001 14.495407 -7.737500
					CHANNELS 3 Xrotation Yrotation Zrotation
					JOINT RightArm
					{
						OFFSET -9.308998 -2.777710 0.208500
						CHANNELS 3 Xrotation Yrotation Zrotation
						JOINT RightForeArm
						{
							OFFSET -29.972300 0.000000 0.000000
							CHANNELS 3 Xrotation Yrotation Zrotation
							JOINT RightHand
							{
								OFFSET -26.026505 0.000000 0.000000
								CHANNELS 3 Xrotation Yrotation Zrotation
								JOINT RightHandThumb1
								{
									OFFSET -12.240601 -7.148026 9.207092
									CHANNELS 3 Xrotation Yrotation Zrotation
									JOINT RightHandThumb2
									{
										OFFSET -4.138618 -2.389435 2.389433
										CHANNELS 3 Xrotation Yrotation Zrotation
										JOINT RightHandThumb3
										{
											OFFSET -2.726974 -1.574417 1.574421
											CHANNELS 3 Xrotation Yrotation Zrotation
											JOINT RightHandThumb4
											{
												OFFSET -3.941010 -2.275345 2.275343
												CHANNELS 3 Xrotation Yrotation Zrotation
												End Site
												{
													OFFSET 0.005814 5.087799 0.009927
												}
											}
										}
									}
								}
								JOINT RightHandIndex1
								{
									OFFSET -24.424698 -1.985657 5.953444
									CHANNELS 3 Xrotation Yrotation Zrotation
									JOINT RightHandIndex2
									{
										OFFSET -6.426697 0.000000 0.000000
										CHANNELS 3 Xrotation Yrotation Zrotation
										JOINT RightHandIndex3
										{
											OFFSET -5.337898 0.000000 0.000000
											CHANNELS 3 Xrotation Yrotation Zrotation
											JOINT RightHandIndex4
											{
												OFFSET -4.409401 0.000000 0.000000
												CHANNELS 3 Xrotation Yrotation Zrotation
												End Site
												{
													OFFSET 0.000000 4.409363 0.014408
												}
											}
										}
									}
								}
								JOINT RightHandMiddle1
								{
									OFFSET -23.810097 0.000000 0.000000
									CHANNELS 3 Xrotation Yrotation Zrotation
									JOINT RightHandMiddle2
									{
										OFFSET -7.176498 0.000000 0.000000
										CHANNELS 3 Xrotation Yrotation Zrotation
										JOINT RightHandMiddle3
										{
											OFFSET -6.774902 0.000000 0.000000
											CHANNELS 3 Xrotation Yrotation Zrotation
											JOINT RightHandMiddle4
											{
												OFFSET -5.403328 0.000000 0.000000
												CHANNELS 3 Xrotation Yrotation Zrotation
												End Site
												{
													OFFSET 0.027702 5.403244 0.017457
												}
											}
										}
									}
								}
								JOINT RightHandRing1
								{
									OFFSET -22.908302 -0.839325 -6.020576
									CHANNELS 3 Xrotation Yrotation Zrotation
									JOINT RightHandRing2
									{
										OFFSET -6.337502 0.000000 0.000000
										CHANNELS 3 Xrotation Yrotation Zrotation
										JOINT RightHandRing3
										{
											OFFSET -5.779297 0.000000 0.000000
											CHANNELS 3 Xrotation Yrotation Zrotation
											JOINT RightHandRing4
											{
												OFFSET -4.965698 0.000000 0.000000
												CHANNELS 3 Xrotation Yrotation Zrotation
												End Site
												{
													OFFSET 0.000000 4.965668 0.016226
												}
											}
										}
									}
								}
								JOINT RightHandPinky1
								{
									OFFSET -20.037003 -1.530334 -10.950259
									CHANNELS 3 Xrotation Yrotation Zrotation
									JOINT RightHandPinky2
									{
										OFFSET -5.254700 0.000000 0.000000
										CHANNELS 3 Xrotation Yrotation Zrotation
										JOINT RightHandPinky3
										{
											OFFSET -4.810204 0.000000 0.000000
											CHANNELS 3 Xrotation Yrotation Zrotation
											JOINT RightHandPinky4
											{
												OFFSET -3.647202 0.000000 0.000000
												CHANNELS 3 Xrotation Yrotation Zrotation
												End Site
												{
													OFFSET 0.000000 3.647186 0.011917
												}
											}
										}
									}
								}
							}
						}
					}
				}
			}
		}
	}
	JOINT LeftUpLeg
	{
		OFFSET 15.427100 -6.655098 0.678600
		CHANNELS 3 Xrotation Yrotation Zrotation
		JOINT LeftLeg
		{
			OFFSET 4.081073 -39.591068 13.024000
			CHANNELS 3 Xrotation Yrotation Zrotation
			JOINT LeftFoot
			{
				OFFSET -4.081074 -37.707932 -15.979700
				CHANNELS 3 Xrotation Yrotation Zrotation
				JOINT LeftToeBase
				{
					OFFSET 5.346399 -15.068900 20.645000
					CHANNELS 3 Xrotation Yrotation Zrotation
					JOINT LeftToe_End
					{
						OFFSET 2.754700 0.931300 11.300900
						CHANNELS 3 Xrotation Yrotation Zrotation
						End Site
						{
							OFFSET 0.000000 11.669021 0.000000
						}
					}
				}
			}
		}
	}
	JOINT RightUpLeg
	{
		OFFSET -15.569500 -6.655098 0.678600
		CHANNELS 3 Xrotation Yrotation Zrotation
		JOINT RightLeg
		{
			OFFSET -4.081825 -39.591045 13.023800
			CHANNELS 3 Xrotation Yrotation Zrotation
			JOINT RightFoot
			{
				OFFSET 4.081824 -37.707954 -15.979600
				CHANNELS 3 Xrotation Yrotation Zrotation
				JOINT RightToeBase
				{
					OFFSET -5.346400 -15.068900 20.645000
					CHANNELS 3 Xrotation Yrotation Zrotation
					JOINT RightToe_End
					{
						OFFSET -2.754700 0.931300 11.300900
						CHANNELS 3 Xrotation Yrotation Zrotation
						End Site
						{
							OFFSET 0.000000 11.669021 0.000000
						}
					}
				}
			}
		}
	}
}
MOTION
Frames: 5
Frame Time: 0.033333
-0.422703 46.997375 11.840317 -31.213042 -4.459619 -4.353781 3.726045 -2.590543 2.161772 7.375602 -6.120903 1.804795 7.375594 -6.120902 1.804792 -17.059647 -1.775946 7.584179 -17.097120 25.020605 11.055796 -0.000001 0.000000 -0.000000 0.165820 1.632983 7.826422 -94.077516 -36.394055 -47.811976 -106.844116 -33.475543 -64.794275 -7.537225 -33.613690 31.334374 -0.398395 37.792058 -34.272096 17.172194 -8.437579 13.899281 -0.000001 0.000002 -0.000008 0.000001 -0.000000 -0.000001 -14.703374 15.179474 -23.024346 -3.075825 -3.226601 -59.602888 0.000001 0.000001 0.000000 -0.000000 0.000001 -0.000000 -5.290873 14.818550 -35.531375 -4.799486 -5.297608 -76.753793 0.000004 0.000002 0.000000 -0.000002 -0.000001 -0.000000 -9.344833 21.150012 -46.001601 -2.499856 -4.176022 -73.016498 -0.000008 0.000003 0.000007 0.000002 0.000001 -0.000001 -17.767888 18.151798 -59.937867 -1.086116 -6.078682 -62.950329 0.000001 0.000000 -0.000000 -0.000001 -0.000000 -0.000002 -44.949758 48.553667 -4.648028 -36.878824 10.191721 52.157920 4.574876 74.455161 -22.162830 40.194447 -10.288070 -31.783852 -3.508994 8.730747 -18.710943 -0.642350 -0.093888 -1.289342 -0.000001 0.000008 -0.000003 0.000002 -0.000000 0.000001 -7.782573 -3.279256 33.281371 -5.270334 2.955055 89.030689 -0.000002 -0.000001 -0.000000 -0.000000 0.000001 0.000000 -0.968411 -0.337323 44.592922 -5.078175 4.329518 89.810075 0.000002 0.000010 0.000003 -0.000001 -0.000002 -0.000000 -1.956352 0.402566 51.360086 -4.312904 5.648289 82.520296 -0.000000 0.000000 -0.000001 -0.000002 0.000000 -0.000002 -1.226611 3.875484 58.812826 -3.632032 9.213108 74.495569 -0.000001 0.000000 -0.000000 -0.000001 0.000001 0.000001 -63.101570 2.692155 16.663372 86.358815 -0.387982 -3.535746 0.953763 5.887618 7.552606 1.810081 -0.030594 0.058232 0.000000 -0.000002 -0.000000 -63.165446 -2.974072 -10.337880 64.333593 -1.682506 2.782501 24.388439 -7.602912 -5.052185 2.167273 -0.110546 0.263375 0.000000 -0.000000 -0.000000 
-0.389205 46.547249 12.016907 -31.255639 -4.462872 -4.512440 3.731212 -2.414083 2.187327 7.391556 -5.783680 1.848076 7.391539 -5.783680 1.848078 -17.130369 -1.568063 7.082344 -16.047873 24.239238 10.673217 -0.000001 -0.000000 -0.000000 0.167058 1.544571 7.703611 -95.261263 -38.307912 -46.339955 -104.230586 -31.302180 -58.931760 -8.318742 -31.948917 32.419841 -0.471615 37.628619 -33.994756 17.172211 -8.437567 13.899055 -0.000002 0.000001 -0.000010 -0.000001 -0.000001 -0.000002 -14.619824 14.980519 -23.011175 -2.975348 -2.964172 -60.397621 -0.000000 0.000001 -0.000001 -0.000004 0.000000 -0.000000 -5.202042 14.652583 -35.583947 -4.716268 -5.267236 -76.369677 0.000007 0.000004 0.000002 -0.000002 -0.000002 0.000001 -9.271543 20.974498 -46.062939 -2.535308 -4.194330 -72.979806 -0.000008 0.000002 0.000005 0.000001 0.000002 -0.000004 -17.664696 17.961690 -60.028538 -1.320488 -6.206151 -64.191361 0.000001 -0.000002 0.000000 0.000000 -0.000001 -0.000000 -42.277491 46.565686 -6.997744 -38.907776 13.595308 50.628313 -0.993429 73.149646 -15.768267 37.884191 -13.105338 -28.900299 -3.508983 8.730748 -18.710938 -0.642359 -0.093870 -1.289319 -0.000006 0.000009 -0.000007 -0.000001 -0.000000 0.000001 -7.782570 -3.279253 33.281377 -5.270312 2.955051 89.030676 0.000000 -0.000003 -0.000001 -0.000001 0.000001 -0.000000 -0.968404 -0.337322 44.592919 -5.078185 4.329513 89.810062 0.000002 0.000010 0.000004 -0.000002 -0.000002 -0.000001 -1.956358 0.402595 51.360072 -4.312901 5.648268 82.520317 0.000001 0.000000 0.000002 0.000001 -0.000002 -0.000000 -1.226621 3.875492 58.812806 -3.632055 9.213114 74.495596 -0.000003 0.000001 0.000001 0.000003 0.000002 0.000001 -63.730118 2.206517 16.928651 87.019096 -0.427664 -3.593794 1.621089 5.595815 6.935350 1.776919 -0.030371 0.058320 -0.000000 -0.000002 0.000000 -63.634359 -2.888111 -10.174713 64.819731 -1.608471 2.809305 24.555746 -7.940295 -5.078997 2.153562 -0.110640 0.263533 0.000000 -0.000001 0.000000 
-0.360729 46.055321 12.169876 -31.411285 -4.290561 -4.531396 3.729906 -2.263748 2.176820 7.392525 -5.498022 1.826110 7.392510 -5.498030 1.826108 -17.066619 -1.529689 6.446125 -14.572473 22.369904 10.139609 0.000003 0.000000 0.000000 0.152933 1.362704 7.175637 -97.786637 -40.972911 -45.952242 -100.167436 -29.415962 -51.428797 -8.551370 -29.345693 33.247517 -0.544122 37.463782 -33.713599 17.172308 -8.437482 13.898626 0.000001 0.000003 -0.000008 -0.000003 -0.000001 -0.000003 -14.536099 14.781615 -22.997310 -2.867320 -2.683603 -61.374782 -0.000001 -0.000000 0.000001 -0.000001 -0.000001 0.000000 -5.113509 14.486481 -35.635925 -4.601248 -5.233524 -75.667411 0.000008 0.000002 -0.000002 -0.000003 -0.000001 0.000001 -9.198625 20.798870 -46.123738 -2.549179 -4.200845 -72.614596 -0.000008 0.000000 0.000004 0.000001 -0.000001 -0.000001 -17.562109 17.771321 -60.118594 -1.632996 -6.379159 -66.050074 -0.000000 -0.000000 0.000000 -0.000001 -0.000001 0.000001 -39.788519 44.323990 -8.996842 -40.598819 17.731299 49.084301 -8.562055 70.189326 -7.321060 34.001672 -15.224650 -27.556183 -3.508996 8.730742 -18.710933 -0.642341 -0.093863 -1.289335 -0.000002 0.000011 -0.000014 0.000001 0.000000 -0.000000 -7.782574 -3.279243 33.281374 -5.270334 2.955058 89.030683 -0.000001 -0.000004 -0.000000 -0.000001 0.000002 -0.000000 -0.968406 -0.337315 44.592925 -5.078182 4.329518 89.810075 0.000004 0.000009 0.000001 -0.000002 -0.000001 0.000002 -1.956335 0.402566 51.360103 -4.312887 5.648292 82.520290 -0.000002 0.000001 0.000002 0.000001 -0.000001 -0.000002 -1.226619 3.875496 58.812840 -3.632048 9.213116 74.495596 0.000000 0.000001 0.000002 -0.000003 -0.000001 0.000001 -64.280030 1.675325 16.886985 87.603036 -0.474509 -3.660294 2.515826 5.374802 6.180099 1.754526 -0.030085 0.058380 -0.000000 -0.000001 0.000000 -64.079018 -2.791751 -10.387732 65.395079 -1.512677 2.857224 24.829971 -8.061020 -5.007851 2.104865 -0.110681 0.263607 -0.000000 0.000001 0.000000 
-0.371837 45.643105 12.265182 -31.496338 -4.003848 -4.230616 3.702012 -2.132314 2.122591 7.339749 -5.238064 1.745182 7.339740 -5.238064 1.745181 -16.729585 -1.533713 5.753966 -12.463646 20.152656 9.575286 0.000002 -0.000000 -0.000000 0.206007 0.295725 6.585204 -97.730431 -42.589580 -44.967595 -97.179194 -30.219909 -48.038834 -9.485328 -26.405626 35.577786 -0.615859 37.297576 -33.428831 17.172407 -8.437410 13.897976 -0.000004 0.000003 -0.000007 0.000001 -0.000000 -0.000001 -14.452236 14.582749 -22.982750 -2.730313 -2.419596 -62.059864 0.000003 0.000001 -0.000000 0.000002 0.000001 -0.000000 -5.025276 14.320256 -35.687370 -4.468936 -5.195352 -74.794997 0.000005 0.000003 -0.000003 -0.000002 0.000000 -0.000001 -9.126097 20.623133 -46.183960 -2.569982 -4.211531 -72.316404 -0.000011 -0.000001 0.000008 -0.000000 0.000001 -0.000001 -17.460229 17.580705 -60.208111 -1.986406 -6.557565 -68.167269 -0.000000 0.000001 0.000003 0.000001 0.000000 -0.000002 -37.360537 42.898133 -10.682367 -40.541691 19.479343 47.854850 -11.597766 70.181532 -3.518430 30.457603 -17.389397 -26.158655 -3.508976 8.730746 -18.710926 -0.642354 -0.093883 -1.289345 -0.000000 0.000010 -0.000006 -0.000000 -0.000000 0.000001 -7.782557 -3.279252 33.281377 -5.270322 2.955064 89.030689 -0.000003 -0.000003 0.000000 0.000001 -0.000001 -0.000002 -0.968409 -0.337312 44.592939 -5.078174 4.329514 89.810062 -0.000000 0.000006 -0.000000 0.000001 0.000001 0.000002 -1.956340 0.402579 51.360065 -4.312903 5.648266 82.520310 0.000000 -0.000002 0.000001 -0.000000 -0.000000 0.000001 -1.226603 3.875493 58.812826 -3.632046 9.213119 74.495596 -0.000000 -0.000003 0.000001 0.000001 0.000002 0.000000 -64.765513 1.702431 16.607839 87.879830 -0.590435 -3.703538 3.380388 5.238209 5.872871 1.722749 -0.029801 0.058463 0.000000 -0.000002 -0.000000 -64.653020 -2.592495 -11.152675 66.129393 -1.395871 2.939318 25.237797 -7.929548 -4.642214 1.980267 -0.110608 0.263482 0.000000 -0.000001 -0.000000 
-0.473550 45.448372 12.332817 -31.246476 -3.862208 -3.636562 3.622352 -1.990866 1.971194 7.189681 -4.869586 1.633237 7.189677 -4.869586 1.633238 -16.976754 -1.352279 5.387509 -10.513143 19.410986 9.194428 -0.000002 0.000000 -0.000000 0.295138 -0.648484 6.739932 -91.112606 -41.182383 -42.460008 -99.673784 -35.316975 -54.806821 -11.349246 -23.980977 42.075277 -0.686697 37.130059 -33.140559 17.172578 -8.437305 13.897107 -0.000003 0.000002 -0.000007 -0.000000 0.000001 0.000000 -14.368169 14.383931 -22.967488 -2.572211 -2.168444 -62.525416 0.000000 -0.000001 0.000000 0.000002 -0.000001 -0.000001 -4.937325 14.153919 -35.738258 -4.257860 -5.146908 -73.057978 0.000005 0.000005 -0.000001 -0.000000 0.000001 -0.000000 -9.053960 20.447250 -46.243598 -2.568310 -4.210480 -71.689474 -0.000008 0.000000 0.000005 0.000002 0.000000 -0.000001 -17.358950 17.389844 -60.297053 -2.251088 -6.651995 -69.428634 0.000001 0.000002 0.000004 -0.000001 0.000000 -0.000001 -34.661724 42.346531 -12.544448 -39.086246 16.134894 48.711485 -7.781194 76.685949 -6.766817 30.507542 -19.887025 -21.928411 -3.508992 8.730749 -18.710934 -0.642344 -0.093877 -1.289341 -0.000006 0.000008 -0.000003 -0.000000 -0.000001 0.000003 -7.782564 -3.279250 33.281371 -5.270322 2.955041 89.030689 -0.000004 -0.000003 0.000003 -0.000001 0.000000 -0.000001 -0.968407 -0.337335 44.592922 -5.078177 4.329515 89.810075 0.000002 0.000008 0.000002 0.000001 -0.000002 -0.000002 -1.956340 0.402575 51.360075 -4.312908 5.648284 82.520324 0.000001 -0.000000 0.000002 -0.000002 -0.000001 -0.000001 -1.226610 3.875481 58.812819 -3.632038 9.213111 74.495589 0.000001 -0.000001 -0.000001 0.000003 0.000003 0.000003 -65.074354 1.959592 16.157810 87.828801 -0.535774 -3.773334 3.910174 5.122535 5.701063 1.676674 -0.029545 0.058583 0.000000 -0.000000 -0.000000 -65.586823 -2.156345 -12.300876 67.757621 -1.184006 3.075970 25.034124 -7.757269 -3.821648 1.864491 -0.110559 0.263390 -0.000000 0.000002 -0.000000 
